<svg xmlns="http://www.w3.org/2000/svg" width="24" height="24" viewBox="0 0 24 24">
  <g id="Group_351" data-name="Group 351" transform="translate(-384 -56)">
    <rect id="Rectangle_311" data-name="Rectangle 311" width="24" height="24" transform="translate(384 56)" fill="none"/>
    <g id="mail-unread" transform="translate(385 59)">
      <path id="Path_374" data-name="Path 374" d="M374.278,67.134a3.175,3.175,0,0,0-5.9-1.623v0c-.027.045-.052.09-.077.136l-.012.024c-.021.039-.04.079-.059.119l-.017.037c-.016.036-.032.073-.047.11l-.018.046c-.013.035-.026.069-.039.1l-.018.053c-.011.034-.021.068-.031.1s-.011.038-.016.057-.017.067-.025.1l-.014.061c-.007.034-.013.068-.019.1s-.008.042-.011.062-.01.07-.014.105-.005.041-.008.061c0,.038-.007.076-.009.115,0,.018,0,.036,0,.054,0,.057,0,.113,0,.171s0,.1,0,.146v.032q0,.07.01.14l0,.024c0,.042.009.084.016.125a.064.064,0,0,0,0,.026c.007.045.015.09.024.134a.18.18,0,0,0,.006.032c.009.043.019.085.03.127v.009c.011.044.024.087.037.13l.01.034c.013.042.027.083.042.124l.01.027c.013.035.027.07.042.105l.012.03c.017.039.034.078.053.117l.016.033c.017.035.035.069.053.1a3.189,3.189,0,0,0,1.1,1.18,3.092,3.092,0,0,0,.378.206l.019.009q.132.059.269.107l.047.016.074.023.067.019.1.025.086.02.057.011.091.016.047.007.135.017.038,0,.109.008.043,0c.05,0,.1,0,.145,0s.114,0,.171,0l.053,0,.115-.009.062-.008.1-.014.062-.011.1-.019.061-.014c.034-.008.067-.016.1-.025l.057-.016.1-.031.053-.018.1-.039.046-.018c.037-.015.074-.031.11-.047l.037-.017c.04-.019.08-.038.119-.059l.024-.012c.046-.025.091-.05.136-.077h0a3.2,3.2,0,0,0,.765-.628A3.163,3.163,0,0,0,374.278,67.134Z" transform="translate(-351.278 -63.957)" fill="#434343"/>
      <path id="Path_375" data-name="Path 375" d="M48.823,85.82l-5.233,3.9a.821.821,0,0,1-.974,0L35.479,84.4a.739.739,0,0,1-.139-1.066.816.816,0,0,1,1.113-.134L43.1,88.157l4.67-3.481A4.391,4.391,0,0,1,47.7,80H34.776A2.723,2.723,0,0,0,32,82.66v11.4a2.723,2.723,0,0,0,2.776,2.66H51.431a2.723,2.723,0,0,0,2.776-2.66V86.231A4.919,4.919,0,0,1,48.823,85.82Z" transform="translate(-32 -79.205)" fill="#434343"/>
    </g>
  </g>
</svg>
