<svg xmlns="http://www.w3.org/2000/svg" width="24" height="24" viewBox="0 0 24 24">
  <g id="Group_354" data-name="Group 354" transform="translate(-240 -56)">
    <rect id="Rectangle_308" data-name="Rectangle 308" width="24" height="24" transform="translate(240 56)" fill="none"/>
    <path id="search" d="M70.545,69.467l-5.19-5.41a10.274,10.274,0,0,0,1.922-6.013A9.646,9.646,0,1,0,57.638,68.09a9.335,9.335,0,0,0,5.769-2L68.6,71.5a1.339,1.339,0,0,0,1.894-.055,1.482,1.482,0,0,0,.053-1.974ZM50.754,58.045a6.89,6.89,0,1,1,6.884,7.175A7.034,7.034,0,0,1,50.754,58.045Z" transform="translate(193 8)" fill="#434343"/>
  </g>
</svg>
